<?xml version="1.0" encoding="UTF-8"?>
<svg version="1.1" xmlns="http://www.w3.org/2000/svg" width="512" height="512">
<path d="M0 0 C33.99 0 67.98 0 103 0 C106.37493662 8.99983098 106.37493662 8.99983098 107.55822754 13.15652466 C107.96638577 14.58100922 107.96638577 14.58100922 108.38278961 16.03427124 C108.6721917 17.05695099 108.96159378 18.07963074 109.25976562 19.13330078 C109.73474613 20.79637268 109.73474613 20.79637268 110.2193222 22.49304199 C111.09798557 25.57190993 111.97368252 28.65160394 112.84820557 31.73164988 C113.80610367 35.10232896 114.76801815 38.47186178 115.72949219 41.84152222 C117.42165451 47.77383184 119.11156591 53.70677885 120.80004883 59.64013672 C123.55250985 69.31191177 126.30987675 78.98228462 129.06835938 88.65234375 C129.42516171 89.90315585 129.42516171 89.90315585 129.78917217 91.17923689 C130.76995456 94.61743494 131.75076101 98.05562613 132.73163176 101.49379897 C134.00246669 105.94836944 135.27316347 110.40297923 136.54356384 114.85767365 C148.26867824 155.97203748 160.04177826 197.07262502 171.81879711 238.17214584 C176.2351369 253.58442512 180.64992084 268.9971494 185.0637207 284.41015625 C185.69088184 286.60017038 186.31804381 288.79018426 186.94520664 290.98019791 C188.19333109 295.33858608 189.44145039 299.69697572 190.68956566 304.05536652 C190.99697803 305.12884244 191.30439041 306.20231836 191.62111831 307.30832386 C192.24031081 309.47053117 192.85950118 311.63273909 193.47868943 313.79494762 C200.49764514 338.30506253 207.51888787 362.81451611 214.54885411 387.32147551 C218.87251378 402.39406736 223.19296432 417.46757517 227.50971031 432.54214859 C230.03556716 441.36218533 232.56454274 450.18131477 235.09783763 458.99921811 C236.78460193 464.87153719 238.46762189 470.74492053 240.14751416 476.61920917 C241.10132192 479.95406517 242.05683256 483.28840776 243.01701927 486.62143326 C244.04312853 490.18652331 245.06281503 493.75338695 246.08081055 497.32080078 C246.38099846 498.35786163 246.68118637 499.39492249 246.99047089 500.46340942 C247.25845238 501.40756714 247.52643387 502.35172485 247.80253601 503.32449341 C248.03562816 504.13727816 248.2687203 504.9500629 248.50887585 505.78747749 C249 508 249 508 249 512 C215.34 512 181.68 512 147 512 C120.45833333 420.125 93.91666667 328.25 67.375 236.375 C67.10687217 235.44686524 66.83874434 234.51873049 66.56249142 233.56247044 C66.02085326 231.68756901 65.4792152 229.81266756 64.93757725 227.93776608 C63.5829753 223.24875761 62.22837153 218.55974966 60.87376404 213.8707428 C58.44145993 205.45125623 56.00916812 197.0317661 53.5769453 188.61225605 C52.22969137 183.94853266 50.88242664 179.28481239 49.53515625 174.62109375 C49.26812456 173.6967346 49.00109287 172.77237545 48.72596931 171.82000542 C45.6859581 161.29674103 42.64570567 150.77354639 39.60498047 140.25048828 C39.32284069 139.27408292 39.04070091 138.29767756 38.75001144 137.29168415 C37.61037146 133.34773516 36.47072518 129.40378798 35.33103943 125.45985222 C32.2778151 114.89401014 29.22512481 104.32801455 26.17431641 93.76147461 C25.37862417 91.00568354 24.58292439 88.24989466 23.78721619 85.4941082 C23.26705061 83.69260487 22.74689872 81.89109759 22.22676086 80.08958626 C19.11782882 69.32233418 16.00340409 58.55670049 12.88056946 47.79347229 C11.44054537 42.8300472 10.00301254 37.86590195 8.56632137 32.90151119 C7.6381557 29.69494708 6.70809782 26.48896105 5.77536011 23.28372192 C4.78159504 19.86854754 3.79255537 16.45204022 2.8046875 13.03515625 C2.51548935 12.04620361 2.2262912 11.05725098 1.92832947 10.03833008 C1.67080399 9.14404297 1.4132785 8.24975586 1.14794922 7.32836914 C0.92436737 6.55836075 0.70078552 5.78835236 0.47042847 4.99501038 C0 3 0 3 0 0 Z " fill="#000000" transform="translate(51,0)"/>
<path d="M0 0 C1.13795344 0.00138269 1.13795344 0.00138269 2.29889584 0.00279331 C3.16692837 0.00141865 4.0349609 0.00004398 4.92929745 -0.00137234 C5.88882824 0.00222294 6.84835903 0.00581821 7.83696651 0.00952244 C8.84173031 0.00937641 9.8464941 0.00923038 10.88170528 0.00907993 C14.22024817 0.00977953 17.55873604 0.01757409 20.89726925 0.02539158 C23.20512518 0.02725559 25.51298151 0.02867957 27.82083797 0.0296793 C33.90854126 0.03350578 39.99622086 0.04333718 46.08391476 0.05438328 C52.29057654 0.0645946 58.49724212 0.06917632 64.70390987 0.0742197 C76.89207135 0.08495933 89.08021521 0.10203731 101.268363 0.12304783 C100.24201087 4.89593104 99.21109519 9.63109614 97.7539587 14.29467869 C97.46701641 15.21942997 97.18007412 16.14418125 96.88443661 17.0969553 C96.57414013 18.08396427 96.26384365 19.07097324 95.94414425 20.08789158 C95.61060436 21.15933414 95.27706448 22.23077671 94.93341732 23.33468723 C93.81926719 26.91103398 92.7000135 30.48576301 91.580863 34.06054783 C90.77791489 36.63489424 89.97528446 39.20933727 89.17314816 41.7839365 C87.66944778 46.60918484 86.16450207 51.43404162 84.65812588 56.25845528 C81.69800777 65.73930427 78.74878832 75.2235141 75.80351925 84.70898533 C75.33816995 86.20754687 74.87281756 87.70610746 74.40746212 89.20466709 C73.70143898 91.47825847 72.99541892 93.75185081 72.28942013 96.02544975 C63.27607556 125.05075786 54.23661983 154.06791072 45.18891811 183.0825243 C38.17691074 205.569014 31.17874344 228.05968679 24.20351315 250.55761814 C17.8385459 271.08538692 11.44650941 291.60464853 5.04827785 312.12206745 C-1.98491572 334.67565645 -9.01500512 357.23015929 -16.01532841 379.79397678 C-17.09315717 383.26711118 -18.17205422 386.73991219 -19.25116825 390.21264744 C-22.68274738 401.2609975 -26.10051433 412.31336543 -29.48984623 423.37474155 C-30.95758572 428.16425529 -32.43035057 432.9522195 -33.90430355 437.7398243 C-34.91392295 441.02059946 -35.92055195 444.30223106 -36.92029667 447.58603001 C-38.01723904 451.18514528 -39.12339216 454.78130597 -40.231637 458.37695408 C-40.72091175 459.99565907 -40.72091175 459.99565907 -41.22007084 461.64706516 C-41.67438984 463.11159626 -41.67438984 463.11159626 -42.137887 464.60571384 C-42.39892216 465.45891712 -42.65995731 466.3121204 -42.92890263 467.19117832 C-43.731637 469.12304783 -43.731637 469.12304783 -45.731637 470.12304783 C-47.11346783 465.18375527 -48.49519016 460.24443237 -49.87685299 455.30509281 C-50.39198381 453.46361742 -50.90714755 451.62215124 -51.42234325 449.78069401 C-54.57957792 438.495831 -57.73416143 427.21023624 -60.88324833 415.92309666 C-62.08120382 411.63031472 -63.27939339 407.33759818 -64.47773075 403.04492283 C-64.77882315 401.96624125 -65.07991554 400.88755966 -65.39013195 399.77619076 C-69.15986221 386.27488361 -72.95413354 372.78090252 -76.78516483 359.29686069 C-78.60484249 352.89205804 -80.41503195 346.4845869 -82.22268009 340.07637978 C-83.67281052 334.93889769 -85.13584554 329.80531796 -86.60823631 324.67417431 C-87.51587797 321.49920465 -88.4110004 318.32080743 -89.30261898 315.14130497 C-89.71458133 313.68208598 -90.1317199 312.22431627 -90.55456066 310.76821232 C-94.63734333 296.69178461 -94.63734333 296.69178461 -92.731637 290.12304783 C-92.46901569 289.17928791 -92.20639439 288.23552799 -91.93581486 287.26316929 C-90.9018899 283.73165668 -89.79506964 280.2291104 -88.67304325 276.72461033 C-88.25286159 275.39473304 -87.83333257 274.06464939 -87.41440678 272.73437595 C-86.51787934 269.8917598 -85.61720141 267.0505068 -84.71317387 264.21026707 C-83.27056527 259.67740985 -81.83767931 255.14151691 -80.40668583 250.60498142 C-79.91919707 249.05984142 -79.43169397 247.51470593 -78.94417667 245.96957493 C-78.70200979 245.20203262 -78.45984291 244.43449032 -78.21033764 243.64368916 C-77.47089603 241.30127094 -76.73054399 238.95914232 -75.98992252 236.6170969 C-71.58236063 222.67634758 -67.24139709 208.71548593 -62.919137 194.74804783 C-61.4549646 190.02127714 -59.98994709 185.29476876 -58.52460575 180.56836033 C-58.14919147 179.35737675 -57.7737772 178.14639317 -57.38698673 176.89871311 C-52.44510216 160.96488314 -47.4752789 145.0397519 -42.50839329 129.11370182 C-33.88314856 101.45702164 -25.27300952 73.79575293 -16.69339848 46.12487888 C-16.04274278 44.02686507 -15.3917314 41.92896152 -14.74033451 39.83117771 C-13.11947325 34.60942901 -11.50386567 29.38614333 -9.8990612 24.15944004 C-9.06739105 21.45208009 -8.23333465 18.74545811 -7.39902401 16.03891087 C-6.99534862 14.72710844 -6.59280517 13.41495713 -6.191432 12.10244846 C-5.63531793 10.28422779 -5.07505895 8.46727642 -4.51459599 6.65039158 C-4.19409779 5.60617039 -3.87359959 4.5619492 -3.54338932 3.48608494 C-2.40454193 0.17086356 -2.40454193 0.17086356 0 0 Z " fill="#000000" transform="translate(359.7316370010376,-0.1230478286743164)"/>
</svg>
